<svg xmlns="http://www.w3.org/2000/svg" viewBox="0 0 242.43 110.79"><defs><style>.cls-1{fill:#00205c;}.cls-2{fill:#e30038;}.cls-3{fill:#ffed00;}</style></defs><g id="Слой_2" data-name="Слой 2"><g id="Layer_1" data-name="Layer 1"><path class="cls-1" d="M233.45,5.32h-.16l-.39,0-12.5,1a5.28,5.28,0,0,0-4.25,2.83,11.27,11.27,0,0,0-8-3c-.41,0-.83,0-1.26,0a17.2,17.2,0,0,0-9.33,3.8,20.2,20.2,0,0,0-9.42-2.13c-.66,0-1.34,0-2,.08a30.2,30.2,0,0,0-13.57,4.53c-.36.23-.71.47-1,.71a10,10,0,0,0-7.77-3.31,11.37,11.37,0,0,0-1.16.05,18.74,18.74,0,0,0-11.34,4.45,10.55,10.55,0,0,0-7.78-2.82c-.52,0-1.06,0-1.63.07a17.12,17.12,0,0,0-9.34,3.8,20,20,0,0,0-9.48-2.17c-.67,0-1.34,0-2,.08a30.15,30.15,0,0,0-13.58,4.52,24.92,24.92,0,0,0-4.23,3.44,10.66,10.66,0,0,0-1-1.39A11.8,11.8,0,0,0,93,15.75c-.38,0-.78,0-1.18.05a20.23,20.23,0,0,0-10.12,3.66,11.43,11.43,0,0,0-7.08-2.21h0c-.41,0-.82,0-1.25.05a16.81,16.81,0,0,0-8.21,3c-3.31-3.89-8.49-6.24-14.8-6.75A12.34,12.34,0,0,0,47.78,8a12.37,12.37,0,0,0-9.72-4.23h0c-.44,0-.9,0-1.35.05a20.88,20.88,0,0,0-14.1,7.61,6.19,6.19,0,0,0-1.33,5.24C12.26,19.93,2.45,27.32.42,38.57-1,46.45,1.47,51.42,3.79,54.2c3,3.59,7.64,5.85,13.3,6.52a13.71,13.71,0,0,0,2.72,10.64,12.35,12.35,0,0,0,9.72,4.24q.66,0,1.35-.06A20.85,20.85,0,0,0,45,67.87a6.29,6.29,0,0,0,1.28-5.44A6.22,6.22,0,0,0,44,58.86a36.76,36.76,0,0,0,12.66-5.1c.69-.46,1.36-.94,2-1.44L56.55,63.71a5.28,5.28,0,0,0,5.2,6.22l.43,0,12.56-1a5.28,5.28,0,0,0,4.76-4.32L80.86,57a14.07,14.07,0,0,0,3.07.51,6.22,6.22,0,0,0,1.76,9.3l-4.15,23s0,.06,0,.09a18.11,18.11,0,0,0,4,14.29c2.55,3,7.45,6.58,16.28,6.58,1,0,1.94,0,3-.12,12.72-1,20.57-7.24,24.61-14.12.26.37.52.73.79,1.09A24.53,24.53,0,0,0,148.06,107c1,.08,2,.11,3,.11A31.32,31.32,0,0,0,172.8,99a5.25,5.25,0,0,0,5.13,4.07l.43,0,15.33-1.26a5.27,5.27,0,0,0,4.76-4.32l1.1-6.06c4.53,8.54,11.45,10,15.53,10,.68,0,1.38,0,2.08-.11,7.7-.82,12.42-4.77,14-11.77a6.2,6.2,0,0,0-4.44-7.4c-1.78-.48-3.07-.82-4.65-4.18-3.31-7-5.33-10.5-7.83-12.8a8.89,8.89,0,0,1,4.25-3.32,22.71,22.71,0,0,1,8.37-1.5h.74a6.23,6.23,0,0,0,6.22-6.12,14.14,14.14,0,0,0-3.4-9.88,19.81,19.81,0,0,0,5.41-4.34,6.21,6.21,0,0,0-.77-8.91l3.49-19.32a4.94,4.94,0,0,0,.12-1.1A5.28,5.28,0,0,0,233.45,5.32Z"/><path class="cls-2" d="M237.2,1.57h-.15l-.39,0-12.5,1a5.25,5.25,0,0,0-4.25,2.83,11.26,11.26,0,0,0-8-3c-.41,0-.83,0-1.25,0a17.12,17.12,0,0,0-9.34,3.8,20.13,20.13,0,0,0-9.41-2.13c-.67,0-1.34,0-2,.08a30.09,30.09,0,0,0-13.57,4.52c-.36.23-.72.47-1.06.72a10,10,0,0,0-7.77-3.32c-.37,0-.76,0-1.15.05A18.84,18.84,0,0,0,155,10.69a10.53,10.53,0,0,0-7.78-2.82c-.51,0-1.06,0-1.62.06a17.13,17.13,0,0,0-9.34,3.81,20.08,20.08,0,0,0-9.49-2.18c-.67,0-1.34,0-2,.09a30.16,30.16,0,0,0-13.57,4.52A24.87,24.87,0,0,0,107,17.6a14,14,0,0,0-1-1.39A11.83,11.83,0,0,0,96.75,12c-.39,0-.79,0-1.18,0a20.34,20.34,0,0,0-10.13,3.67,11.34,11.34,0,0,0-7.07-2.22h0c-.4,0-.82,0-1.24.06a16.85,16.85,0,0,0-8.22,3c-3.3-3.89-8.49-6.25-14.8-6.75a12.19,12.19,0,0,0-2.57-5.52A12.37,12.37,0,0,0,41.81,0h0c-.44,0-.9,0-1.35.06a20.83,20.83,0,0,0-14.1,7.61A6.13,6.13,0,0,0,25,12.9C16,16.18,6.21,23.57,4.18,34.82c-1.43,7.88,1,12.85,3.36,15.63,3,3.59,7.64,5.84,13.31,6.52a13.72,13.72,0,0,0,2.71,10.64,12.38,12.38,0,0,0,9.72,4.24c.44,0,.9,0,1.35-.06a20.86,20.86,0,0,0,14.15-7.68,6.22,6.22,0,0,0-1.07-9A36.33,36.33,0,0,0,60.36,50c.7-.45,1.36-.94,2-1.44l-2,11.4a5.27,5.27,0,0,0,5.19,6.21,3,3,0,0,0,.43,0l12.56-1a5.29,5.29,0,0,0,4.77-4.33l1.36-7.53a13.5,13.5,0,0,0,3.07.52,6.19,6.19,0,0,0,1.76,9.29l-4.15,23a.29.29,0,0,0,0,.09,18.16,18.16,0,0,0,4,14.29c2.55,3,7.45,6.58,16.28,6.58,1,0,2,0,3-.13,12.72-1,20.57-7.23,24.62-14.11.25.37.51.73.79,1.08a24.47,24.47,0,0,0,17.94,9.32c1,.07,2,.11,3,.11a31.25,31.25,0,0,0,21.73-8.09,5.35,5.35,0,0,0,1.23,2.34,5.25,5.25,0,0,0,3.91,1.73,3.17,3.17,0,0,0,.43,0L197.44,98a5.29,5.29,0,0,0,4.77-4.33l1.09-6c4.54,8.53,11.46,9.94,15.53,9.94a18.36,18.36,0,0,0,2.08-.11c7.71-.81,12.42-4.77,14-11.76a6.2,6.2,0,0,0-4.45-7.4c-1.78-.48-3.07-.83-4.65-4.18-3.3-7-5.32-10.5-7.83-12.8A9,9,0,0,1,222.25,58a22.88,22.88,0,0,1,8.37-1.49h.75a6.24,6.24,0,0,0,6.21-6.12,14.08,14.08,0,0,0-3.4-9.88,19.65,19.65,0,0,0,5.41-4.34,6.23,6.23,0,0,0-.76-8.91L242.32,8a5.62,5.62,0,0,0,.11-1.1A5.28,5.28,0,0,0,237.2,1.57Z"/><path class="cls-3" d="M235.28,31.24c-1.22-.48-2.23-1.72-1.81-4l3.68-20.35-12.56,1L222.5,19.43l-5.64.46.76-4.19c1-5.44-1.72-8.31-6.52-7.92a12.67,12.67,0,0,0-8.37,4.48.92.92,0,0,0,.33,1.46c1.22.48,2.23,1.73,1.81,4l-3.68,20.35,12.56-1,2-11.28,5.64-.46s-.48,2.7-.71,3.92c-1,5.43,1.72,8.3,6.52,7.92a12.65,12.65,0,0,0,8.37-4.48A.93.93,0,0,0,235.28,31.24Z"/><path class="cls-3" d="M42.44,50.54h0c9.45-.78,22.31-5.91,24.77-19.54,2.11-11.67-6.83-16.9-18.35-16,1.13-6.22-2.1-10.19-8-9.72a15.61,15.61,0,0,0-10.47,5.74.93.93,0,0,0,.45,1.49c1.6.5,3,1.84,2.7,3.75-7.19.59-21.91,6.84-24.19,19.46s7.32,16.89,17.69,16h.06c-.22,1.22-.52,2.84-.91,5-1.12,6.23,2.1,10.2,8,9.73a15.66,15.66,0,0,0,10.52-5.8,1,1,0,0,0-.32-1.47c-1.62-.71-3-2.88-2.3-6.88Zm5-27.37c4.46-.37,7,3.42,6,9S47.93,42.06,44,42.39h0ZM28.62,43.63h-.06c-3.53.27-6.6-2.19-5.37-9s5.3-9.9,8.9-10.19Z"/><path class="cls-3" d="M138,19.14c1.22.49,2.22,1.73,1.8,4.05l-3.67,20.35,12.56-1L151,29.76c1.67.22,2.73,2.84,3.84,6.45,1.25,4.09,3.16,6.65,8.86,6.18A9.38,9.38,0,0,0,171,38.1a.75.75,0,0,0-.32-1.13c-2.42-.54-4.19-2.21-5.61-6.75s-3.7-6.36-7.8-5.66c1.35-7.94,6.48-7.27,6.29-5.49a5.7,5.7,0,0,1-.31,1.37.88.88,0,0,0,.84,1.18c2.49,0,7.37-.49,8.15-4.83.5-2.74-1-5.66-5.38-5.3-6.27.52-9,3.3-11.07,6.48a25.66,25.66,0,0,0-3,7.23l-1.3.11.78-4.32c1.17-6.48-1.39-8.18-6.19-7.79a12.65,12.65,0,0,0-8.37,4.48A.92.92,0,0,0,138,19.14Z"/><path class="cls-3" d="M103.82,31.16c1.37-7.62-1.06-14.41-7.83-13.86-5.75.47-10.15,4.07-11.75,7.65.14-4.27-2.46-6.48-6.7-6.14a12.65,12.65,0,0,0-8.37,4.48.92.92,0,0,0,.33,1.46c1.22.49,2.22,1.73,1.8,4.05L65.5,60.9l12.56-1,3-16.77c.53,3,3.64,5.79,8.23,5.41C95.64,48,102.18,40.22,103.82,31.16Zm-12.44,2.2c-.89,4.78-3.38,7.93-5.88,8s-4.74-2-3.8-7.25,3-7.13,5.48-7.51C91.05,26.07,92,29.83,91.38,33.36Z"/><path class="cls-3" d="M119.61,46a22.27,22.27,0,0,0,15.25-10.54.47.47,0,0,0-.64-.62c-2.09,1.14-3.7,2.94-10.41,3.49-4.19.35-7.48-1.75-6.8-4.68a13.66,13.66,0,0,0,4.76.41c5.37-.46,14.24-2.69,15.58-10.11s-6.31-9.53-12.12-9-17.34,3.78-19.73,16.83S112.27,47,119.61,46ZM124,21.93c3.43-.27,3,3,.7,5a11.79,11.79,0,0,1-7.11,2.93C118.37,25.92,120.69,22.18,124,21.93Z"/><path class="cls-3" d="M184.74,40.62A22.24,22.24,0,0,0,200,30.09a.47.47,0,0,0-.64-.63c-2.09,1.15-3.69,2.94-10.41,3.49-4.19.35-7.47-1.75-6.79-4.68a13.4,13.4,0,0,0,4.76.41c5.36-.46,14.24-2.68,15.58-10.1S196.17,9,190.36,9.52,173,13.3,170.63,26.35,177.39,41.64,184.74,40.62Zm4.35-24.08c3.43-.26,3,3,.71,5a11.76,11.76,0,0,1-7.12,2.93C183.5,20.53,185.81,16.8,189.09,16.54Z"/><path class="cls-3" d="M113.92,69.13c-1.57.13-4.23.44-6,.7,0,0,1.59-8.85,1.6-8.93,4.83.78,8.09,3.42,15.26,2.76s8.79-8.06,9.12-10.92a.93.93,0,0,0-1-1c-13.78.95-18.57-1.35-30.64-.36A15.61,15.61,0,0,0,91.8,57.09a.93.93,0,0,0,.45,1.49c1.61.5,3,1.84,2.7,3.75L90.49,87c-.89,5.44,2,15.91,17.55,14.63,15.69-1.29,21.7-11.22,22.92-18S129.46,67.85,113.92,69.13ZM116.23,85c-.87,4.64-3.88,8.29-6.72,8.52s-5.54-.35-4.21-7.72c.47-2.62,1.4-7.74,1.4-7.74s3.11-.56,5.74-.78S117.1,80.35,116.23,85Z"/><path class="cls-3" d="M164.13,46.68c-16.92-.08-27.55,13.46-30,26.81-2.08,11.37,4.49,23.47,18.05,24.44,23.45,1.68,29.79-19.16,30.74-26.27C184.2,62.1,180.86,46.75,164.13,46.68Zm8.15,22.7c-.31,3.66-3.88,6.38-6.66,8.35s-8.66,6.85-10,8.11c-1.11-2.88-8.34-7.5-10-11.9-1.2-3.15-1.19-7.78,3.5-9.73s7.72,1.07,9.27,2.94c2.86-3.48,6.13-4.65,9.19-4A5.7,5.7,0,0,1,172.28,69.38Z"/><path class="cls-3" d="M221.63,41.55c-10.85.89-15,12.49-16.84,22.41l-2.61.2s.85-4.56,2-10.79-2.1-10.19-8-9.72a15.66,15.66,0,0,0-10.48,5.74.94.94,0,0,0,.45,1.49c1.61.5,3.05,1.84,2.7,3.75L181.69,94,197,92.75l3.85-21.3h0c3.55-.29,3.1,2.61,5.45,9.77,2.79,8.48,7.89,11.65,14.05,11,5.79-.61,8.38-3.12,9.42-7.69a.94.94,0,0,0-.67-1.12c-2.67-.72-5.58-1.78-8.06-7-4.76-10.12-6.24-11.39-9.38-13,2.13-11.81,16-12.26,19.67-12.16a.94.94,0,0,0,1-.91C232.34,47.18,231.35,40.75,221.63,41.55Z"/></g></g></svg>